<svg width="2042" height="1078" viewBox="0 0 2042 1078" fill="none" xmlns="http://www.w3.org/2000/svg">
<path d="M581.5 728.5C625.402 708.7 647.335 702.245 682 698.5C705.287 695.358 718.303 695.017 741.5 695L649.5 503C625.788 533.82 609.082 545.496 574.5 558.5C552.1 568.5 509 569.5 494 574.5C479 579.5 428.5 584.333 400 582.5C356 577 368 586.5 340.5 593C318.5 598.2 298.333 615.833 291 624C264.6 635.6 267 646.5 271.5 650.5C273 651.667 275.7 657.6 274.5 672C273 690 286 720 291 727.5C296 735 287.5 737 295.5 738.5C303.5 740 300.5 740.5 297.5 748.5C295.1 754.9 304.833 761.833 310 764.5C307.6 777.7 329.333 793.667 340.5 800C337.7 816 365.333 835.333 379.5 843C378.7 849.8 386.833 845.833 391 843C392.104 841.004 392.898 840.346 395 841C404.2 844.6 412.5 837.167 415.5 833C423.476 823.967 427.075 820.613 432 817.5C444.8 811.9 440 824.167 436 831C430 840.6 436 839.5 440.5 837.5C475.244 826.542 502.5 806.5 507 799.5C511.5 792.5 541 766 543.5 764C546 762 566.295 738.275 581.5 728.5Z" fill="#E3F2F9" stroke="black"/>
<path d="M741.5 695L649.5 503C619.721 538.598 604.428 546.467 577.5 557.5C578.343 571.342 581.278 580.041 589 596.5C596.732 612.639 597.343 619.357 595.5 629.5C587.9 661.5 607 698.5 617.5 713C646.748 702.493 660.225 700.089 682 698.5C705.287 695.358 718.303 695.017 741.5 695Z" fill="#FD9100" stroke="black"/>
<path d="M382 596.5C386.8 591.7 402 587.5 409 586C429.221 585.112 440.387 585.716 460 589C447.833 590.167 421.4 593.3 413 596.5C404.6 599.7 388.833 609.833 382 614.5C380.5 617.5 374.4 625.8 362 635C349.6 644.2 351.167 651.167 353.5 653.5C341.5 658.7 348.5 669.333 353.5 674C339.1 685.6 349.833 693.5 357 696C356.167 696 356.3 698.3 363.5 707.5C370.7 716.7 368.5 730 366.5 735.5C392.321 746.492 400.708 751.004 397 754C391.4 762 393.333 765.333 395 766C393 774 414 777.5 412 786C410.4 792.8 414.333 793.167 416.5 792.5C427.7 791.3 434.5 796.333 436.5 799C438.667 798.333 443.7 797.6 446.5 800C450 803 436 806.5 429.5 817C424.3 825.4 408 819.833 400.5 816C392.917 814.82 390.044 813.915 389.5 811.5C387.1 805.1 384.833 804.833 384 805.5C382.833 806.833 379.6 807 376 797C372.4 787 369.833 784.833 369 785C366.667 786.5 362.3 788.1 363.5 782.5C364.7 776.9 359.667 771.167 357 769C334.142 747.611 327.538 739.933 330.5 736.5C336.5 723.7 332 716.833 329 715C327.667 715 324.6 713.5 323 707.5C321 700 330.5 699.5 323 692.5C317 686.9 315.833 679.833 316 677C317.167 674.5 318.8 668.1 316 662.5C313.2 656.9 315.833 647.5 317.5 643.5C317.5 629.9 321.167 627.833 323 628.5C326.167 630.167 333.5 631.8 337.5 625C341.5 618.2 347.5 614.167 350 613C353.167 613.833 359.6 614.7 360 611.5C360.4 608.3 366.5 605.167 369.5 604C371.667 603.5 377.2 601.3 382 596.5Z" fill="#090A0C" stroke="black"/>
<path d="M436.5 799C438.667 798.333 443.7 797.6 446.5 800C459.833 801.167 496 795 534 761C547 752.667 570.1 729.6 550.5 708C545.167 679.333 529.1 616.9 507.5 596.5C496.559 591.332 485.695 589.827 460 589C447.833 590.167 421.4 593.3 413 596.5C404.6 599.7 388.833 609.833 382 614.5C380.5 617.5 374.4 625.8 362 635C349.6 644.2 351.167 651.167 353.5 653.5C341.5 658.7 348.5 669.333 353.5 674C339.1 685.6 349.833 693.5 357 696C356.167 696 356.3 698.3 363.5 707.5C370.7 716.7 368.5 730 366.5 735.5C392.321 746.492 400.708 751.004 397 754C391.4 762 393.333 765.333 395 766C393 774 414 777.5 412 786C410.4 792.8 414.333 793.167 416.5 792.5C427.7 791.3 434.5 796.333 436.5 799Z" fill="#FD9D00" stroke="black"/>
<path d="M603.5 386.5C535.5 440.5 560.982 438.723 545.5 471.5C536.719 490.091 583 532.645 589 534.822C595 537 607.261 544.003 614.5 553C641.688 565.654 657.428 561.527 686 543C746.833 489.167 862.6 377.8 839 363C815.4 348.2 790.833 354.167 782 356.5C767.803 349.566 758.963 348.126 742.5 347.5C699.3 337.1 631.833 369.167 603.5 386.5Z" fill="#FB9900" stroke="black"/>
<path d="M571 495.5C582.2 509.5 588.667 528 590.5 535.5C594.611 536.861 596.466 538.07 599.5 540.5C603.667 534.333 609.9 521.3 601.5 518.5C593.1 515.7 594 512.667 595.5 511.5C599.167 509.167 604.7 504.4 597.5 504C590.3 503.6 591.833 489.833 593.5 483C598 466 609.5 431.7 619.5 430.5C629.5 429.3 637 423.333 639.5 420.5C641.1 407.3 663.167 394.333 674 389.5C682.8 377.9 716 367.667 731.5 364C759.5 359.6 756.833 356.667 752 354.5C714.8 348.9 693.5 359.167 687.5 365C671.1 365 663.667 370.667 662 373.5C652.4 372.7 641 382.5 636.5 387.5C621.7 387.1 618 393 618 396C601.975 407.888 593.752 416.697 580 435C572.333 449.333 559.8 481.5 571 495.5Z" fill="#020C0B" stroke="black"/>
<path d="M571 495.5C582.2 509.5 588.667 528 590.5 535.5L589 534.822C583 532.645 536.719 490.091 545.5 471.5C560.982 438.723 535.5 440.5 603.5 386.5C631.833 369.167 699.3 337.1 742.5 347.5C758.963 348.126 767.803 349.566 782 356.5C790.833 354.167 815.4 348.2 839 363C844.167 366.167 845.9 381.7 811.5 418.5C810.167 406.5 802.9 379.4 784.5 367C761.5 351.5 760 358 752 354.5C714.8 348.9 693.5 359.167 687.5 365C671.1 365 663.667 370.667 662 373.5C652.4 372.7 641 382.5 636.5 387.5C621.7 387.1 618 393 618 396C601.975 407.888 593.752 416.697 580 435C572.333 449.333 559.8 481.5 571 495.5Z" fill="#FFF5FD" stroke="black"/>
<path d="M921.5 323.5C910.3 328.3 882.5 321.5 870 317.5C874.388 307.861 877.805 305.984 884 303C900.191 267.983 910.256 256.198 928.5 237.5C970.1 198.7 1033.5 197.333 1060 201.5C1064.61 204.18 1074.77 214.723 1087.5 233C1100.79 252.084 1105.83 259.333 1105.5 261.5C1101.5 275.9 1062.5 281.167 1043.5 282C947.5 300.5 935.5 317.5 921.5 323.5Z" fill="#FB8700" stroke="black"/>
<path d="M928.5 237.5C970.1 198.7 1033.5 197.333 1060 201.5C1062.48 222.206 1058 215 1050.5 212C1043 209 1013.8 211.629 1018.5 215C1021 218.333 1022 224.2 1006 221C990 217.8 981.667 224.333 979.5 228C981.851 235.597 984.719 246.259 969.5 243C952.699 239.403 952.5 242.833 954.5 245C960.5 251.167 968.9 262.2 954.5 257C940.1 251.8 927.5 257.833 923 261.5C916.5 267.667 902.1 283 896.5 295C890.9 307 885.833 305.333 884 303C900.191 267.983 910.256 256.198 928.5 237.5Z" fill="#120E0D" stroke="black"/>
<path d="M911.5 313.5C921.1 319.5 898.166 317 885.5 315C878.387 313.586 880.356 312.211 886.5 309.5C890.833 308.333 901.9 307.5 911.5 313.5Z" fill="#FDC91A" stroke="black"/>
<path d="M931 301C916.175 299.694 903.5 296.5 904 292C904.5 287.5 928.333 291.667 935.5 294C947.748 299.742 942.483 300.355 931 301Z" fill="#FFC708" stroke="black"/>
<path d="M959.5 286C946.203 281.633 940.133 278.001 930.5 270.5C926.95 266.416 931 266.5 935 266.5C939 266.5 948.2 265.7 965 278.5C981.8 291.3 968.333 288.833 959.5 286Z" fill="#FFC708" stroke="black"/>
<path d="M992.5 273.5C984.5 272.3 970.167 258 964 251C961.2 243.8 970.5 247 975.5 249.5C976.167 250 980.3 253.2 991.5 262C1005.5 273 1002.5 275 992.5 273.5Z" fill="#FFC708" stroke="black"/>
<path d="M1025 261C1017.8 252.2 993.5 237.5 989 233C984.5 228.5 986.832 222.063 999 228.5C1020 246 1025 240.5 1033 256C1041 271.5 1034 272 1025 261Z" fill="#FFC708" stroke="black"/>
<path d="M1059.5 260C1061.5 256 1030 223.5 1027.5 221C1025 218.5 1028 208.2 1042 221C1059.5 237 1056.5 240 1069 256C1081.5 272 1057 265 1059.5 260Z" fill="#FFC708" stroke="black"/>
<path d="M1095.5 258C1096.7 254 1074 229.333 1062.5 217.5C1061.3 210.3 1065 210.833 1067 212C1071.09 211.631 1085.18 230.51 1095.5 247.5C1104.15 261.731 1094 263 1095.5 258Z" fill="#FFC708" stroke="black"/>
<path d="M1188 711C1205.03 678.212 1209.1 662.951 1211.5 638.5L1210 623C1201.6 605.4 1106.17 623.667 1059.5 635C1058 639.833 1054.8 649.5 1054 649.5C1053 649.5 1042 666 1028.5 695C1017.7 718.2 1035.67 745 1046 755.5C1058.67 763 1085.6 775 1092 763C1098.4 751 1116.67 745.667 1125 744.5C1138 746.333 1164.8 748.1 1168 740.5C1171.2 732.9 1182.67 717.667 1188 711Z" fill="#FD9D00" stroke="black"/>
<path d="M1046 755.5C1058.67 763 1085.6 775 1092 763C1093.17 761.5 1098.2 756.7 1109 749.5C1119.8 742.3 1113.5 741.5 1109 742C1108.2 745.2 1100 743.333 1096 742C1094.67 740.5 1090.2 737.6 1083 738C1075.8 738.4 1072 736.833 1071 736C1071.5 733.667 1071.1 728 1065.5 724C1059.9 720 1056.5 715 1055.5 713C1046 685.5 1059 681.5 1067.5 661C1076 640.5 1055 649.5 1054 649.5C1053 649.5 1042 666 1028.5 695C1017.7 718.2 1035.67 745 1046 755.5Z" fill="#030406"/>
<path d="M1154.5 718C1146.5 718 1134.5 732 1129.5 739C1135.1 741.4 1153.83 738 1162.5 736C1179.7 723.6 1177.33 718.833 1174 718H1154.5Z" fill="#030406"/>
<path d="M1046 755.5C1058.67 763 1085.6 775 1092 763C1093.17 761.5 1098.2 756.7 1109 749.5C1119.8 742.3 1113.5 741.5 1109 742C1108.2 745.2 1100 743.333 1096 742C1094.67 740.5 1090.2 737.6 1083 738C1075.8 738.4 1072 736.833 1071 736C1071.5 733.667 1071.1 728 1065.5 724C1059.9 720 1056.5 715 1055.5 713C1046 685.5 1059 681.5 1067.5 661C1076 640.5 1055 649.5 1054 649.5C1053 649.5 1042 666 1028.5 695C1017.7 718.2 1035.67 745 1046 755.5Z" stroke="black"/>
<path d="M1154.5 718C1146.5 718 1134.5 732 1129.5 739C1135.1 741.4 1153.83 738 1162.5 736C1179.7 723.6 1177.33 718.833 1174 718H1154.5Z" stroke="black"/>
<path d="M648 753C637.6 739 670 693.167 687.5 672L919.5 658.5L936 689C929.167 699.5 913.8 719.4 907 715C900.2 710.6 876.833 733.5 866 745.5C855.2 769.1 816.5 789.333 798.5 796.5C793.833 795 780.7 793.9 765.5 801.5C750.3 809.1 731.167 810.667 723.5 810.5C725.167 811.5 720.3 811.1 687.5 801.5C654.7 791.9 647.5 765.167 648 753Z" fill="#C8E7FB" stroke="black"/>
<path d="M667.5 725C657.5 699.8 656 724.167 656.5 739.5C654.659 755.614 657.782 761.993 665.5 772C694.3 770.8 686.5 783.167 679 789.5C703 786.5 718 793 721 799C724 805 753.5 798.5 762.5 796.5C771.5 794.5 782.5 782 796 784.5C809.5 787 815.5 782.5 820.5 782C825.5 781.5 842 765 845 763.5C847.4 762.3 874.333 733.333 887.5 719C895.908 710.926 898 703.5 904.5 698C911 692.5 916.8 692.6 908 667C899.2 641.4 897 652.667 897 661.5C901.183 671.296 903.306 676.798 904.294 686.716C901.367 696.615 895.964 704.025 882 719C864.468 742.515 852.884 752.192 830 765C791.2 785.4 783.5 780.833 784.5 776C785.333 771.833 777.8 765.2 741 772C704.2 778.8 694.333 771.833 694 767.5C689.333 763.833 677.5 750.2 667.5 725Z" fill="#020605"/>
<path d="M904.5 686C904.433 686.24 904.364 686.479 904.294 686.716M904.294 686.716C901.367 696.615 895.964 704.025 882 719C864.468 742.515 852.884 752.192 830 765C791.2 785.4 783.5 780.833 784.5 776C785.333 771.833 777.8 765.2 741 772C704.2 778.8 694.333 771.833 694 767.5C689.333 763.833 677.5 750.2 667.5 725C657.5 699.8 656 724.167 656.5 739.5C654.659 755.614 657.782 761.993 665.5 772C694.3 770.8 686.5 783.167 679 789.5C703 786.5 718 793 721 799C724 805 753.5 798.5 762.5 796.5C771.5 794.5 782.5 782 796 784.5C809.5 787 815.5 782.5 820.5 782C825.5 781.5 842 765 845 763.5C847.4 762.3 874.333 733.333 887.5 719C895.908 710.926 898 703.5 904.5 698C911 692.5 916.8 692.6 908 667C899.2 641.4 897 652.667 897 661.5C901.183 671.296 903.306 676.798 904.294 686.716Z" stroke="black"/>
<path d="M694 767.5C689.333 763.833 677.5 750.2 667.5 725C650.7 713 674.5 685.333 688.5 673L897 661.5C901.183 671.296 903.306 676.798 904.294 686.716L904.5 686C904.433 686.24 904.364 686.479 904.294 686.716C868.65 739.784 855.418 746.63 830 765C791.2 785.4 783.5 780.833 784.5 776C785.333 771.833 777.8 765.2 741 772C704.2 778.8 694.333 771.833 694 767.5Z" fill="#FD9D00"/>
<path d="M904.294 686.716C904.364 686.479 904.433 686.24 904.5 686L904.294 686.716ZM904.294 686.716C903.306 676.798 901.183 671.296 897 661.5L688.5 673C674.5 685.333 650.7 713 667.5 725C677.5 750.2 689.333 763.833 694 767.5C694.333 771.833 704.2 778.8 741 772C777.8 765.2 785.333 771.833 784.5 776C783.5 780.833 791.2 785.4 830 765C855.418 746.63 868.65 739.784 904.294 686.716Z" stroke="#FCA700"/>
<path d="M741 696C711.665 689.552 632.15 702.059 618.5 714C607.5 694.833 587.3 653.4 594.5 641C601.7 628.6 585.833 580.167 577 557.5C588.224 551.19 594.294 548.664 604.678 544.342L605.5 544C632.833 523 693.4 477.1 717 461.5C746.5 442 802 371.5 814.5 353C824.5 338.2 837.667 336.833 843 338C855 322 866 318.333 870 318.5C963.649 285.352 1015.26 271.53 1105.5 256C1189 252.078 1236.9 259.908 1324 289.5C1378.4 299.1 1424.33 333.833 1440.5 350C1458.1 360 1456.83 367.833 1454 370.5C1446.17 375.167 1434.4 382.6 1450 375C1465.6 367.4 1469.83 376.833 1470 382.5C1470.17 393 1469.4 414 1465 414C1460.6 414 1460.17 433.333 1460.5 443C1415.45 505.932 1388.88 527.479 1341 561C1314.46 574.935 1300.31 584.803 1276 605C1260.46 617.851 1243.98 625.085 1211.5 638C1149.1 614.8 1000.5 662.333 934 689C905.6 683.4 793.5 691.333 741 696Z" fill="#FB9A00" stroke="black"/>
<path d="M1191 553C1164.2 557.4 1174 560 1161.5 574.5C1149 589 1124.5 601.5 1124.5 601.5C1110.83 608.5 1074 619 1036 605C998 591 969.833 551.167 960.5 533C953.167 511.5 942.9 458.7 960.5 419.5C978.1 380.3 1036.5 366.167 1063.5 364L1063.56 364.02C1073.7 367.498 1079.4 369.455 1083.5 385C1094.67 399.333 1117.3 429.6 1118.5 436C1119.7 442.4 1139.33 460.333 1149 468.5C1147.17 464.667 1148.9 460.2 1170.5 473C1192.1 485.8 1204.83 497.333 1208.5 501.5C1213.83 516.833 1217.8 548.6 1191 553Z" fill="#FD9D00" stroke="black"/>
<path d="M1083.5 385C1085 387.5 1117.3 429.6 1118.5 436C1108.67 422.167 1087.4 395.8 1081 401C1066.33 400 1031.6 408.2 1010 449C988.4 489.8 994 524 999.5 536C1003.67 547.333 1019.8 572.4 1051 582C1067.12 590.227 1076.66 594.144 1094.5 600C1102 602.333 1110.8 607.4 1086 609C1081.83 609.167 1072.6 608.3 1069 603.5C1065.4 598.7 1052.5 597.5 1046.5 597.5C1044.67 597.5 1040.5 596.3 1038.5 591.5C1036.5 586.7 1029.67 585.5 1026.5 585.5C1023.17 585.667 1016.4 584.9 1016 580.5C1015.6 576.1 1006.5 575 1002 575C1000.67 575.667 998.3 575.6 999.5 570C1000.7 564.4 997.333 566 995.5 567.5C994.5 568.333 992.5 568.7 992.5 563.5C992.5 557 990 550.5 981.5 546.5C973 542.5 971 520 971.5 517.5C972 515 973.5 506 966.5 492C960.9 480.8 965.833 482.333 969 484.5C972.5 483.667 977.9 478.4 971.5 464C965.1 449.6 988.5 417.333 1001 403C1014.67 394.333 1044.9 377.2 1056.5 378C1068.1 378.8 1082 382.5 1083.5 385Z" fill="#05121B" stroke="black"/>
<path d="M1069 603.5C1072.6 608.3 1081.83 609.167 1086 609C1087.33 609.667 1088.8 610.7 1084 611.5C1068.17 613.5 1029.6 610.9 1002 584.5C974.4 558.1 963.167 539.833 961 534C952.164 503.872 948.651 486.467 952 452C958.143 421.571 961.918 404.669 992.5 386C1013.53 374.68 1025.85 369.826 1049.5 366C1055.5 364 1066.97 363.621 1074 368.5C1079.45 372.279 1082.81 378.538 1083.5 385C1082 382.5 1068.1 378.8 1056.5 378C1044.9 377.2 1014.67 394.333 1001 403C988.5 417.333 965.1 449.6 971.5 464C977.9 478.4 972.5 483.667 969 484.5C965.833 482.333 960.9 480.8 966.5 492C973.5 506 972 515 971.5 517.5C971 520 973 542.5 981.5 546.5C990 550.5 992.5 557 992.5 563.5C992.5 568.7 994.5 568.333 995.5 567.5C997.334 566 1000.7 564.4 999.5 570C998.3 575.6 1000.67 575.667 1002 575C1006.5 575 1015.6 576.1 1016 580.5C1016.4 584.9 1023.17 585.667 1026.5 585.5C1029.67 585.5 1036.5 586.7 1038.5 591.5C1040.5 596.3 1044.67 597.5 1046.5 597.5C1052.5 597.5 1065.4 598.7 1069 603.5Z" fill="#C0E8F4" stroke="black"/>
<path d="M1313.5 331.5C1307.5 328.7 1300.67 339 1298 344.5C1289.2 351.7 1291.67 361.5 1294 365.5C1296 366.167 1302.7 369.3 1313.5 376.5C1324.3 383.7 1338 378.5 1343.5 375C1348.83 372.333 1359.9 364.9 1361.5 356.5C1363.5 346 1358 335.5 1351 331.5C1344 327.5 1328 327.5 1322.5 327.5C1317 327.5 1321 335 1313.5 331.5Z" fill="#D35300" stroke="black"/>
<path d="M1345.5 338C1333.5 327.2 1319.17 333.5 1313.5 338C1306.3 343.2 1300 352 1303.5 358.5C1307 365 1309.7 361.5 1318.5 367.5C1327.3 373.5 1338.83 365 1343.5 360C1349.17 357.167 1357.5 348.8 1345.5 338Z" fill="#020613" stroke="black"/>
<path d="M1260.5 270C1286.16 276.407 1299.53 280.869 1322 290C1285.35 299.411 1271.26 371.141 1265.66 399.703L1265.5 400.5C1260 428.5 1296.5 477 1306.5 499C1314.5 516.6 1336.5 525.667 1346.5 528C1382.9 528 1379.67 533.667 1373.5 536.5C1364.33 545.833 1339 563.6 1311 560C1283 556.4 1267.67 537.167 1263.5 528C1266.5 525.167 1268.2 517.3 1251 508.5C1233.8 499.7 1228.83 489.833 1228.5 486C1230 481.667 1229.7 471.8 1216.5 467C1203.3 462.2 1202 436.667 1203 424.5C1190.2 398.5 1201.67 359.333 1209 343C1219 289.8 1247.5 272.167 1260.5 270Z" fill="#F2F2FA" stroke="black"/>
<path d="M843 338.5C827.4 330.9 805.167 362.333 796 379C806.189 391.591 810.342 399.927 812 419.5C817.833 434 832.7 465.1 845.5 473.5C858.3 481.9 878.833 529.333 887.5 552C893.428 602.851 898.742 632.088 913 686C918.596 689.679 921.955 691.532 932.5 690.5C965.004 676.301 981.026 671.19 1008.5 663.5C974.9 637.1 986.833 597.167 997 580.5C971.8 558.5 959.5 530 956.5 518.5C943.7 482.5 953.167 439.833 959.5 423C927 405 902 366 891 356C882.2 348 884.333 330.667 886.5 323C886.167 322.167 882.4 320.2 870 319C857.6 317.8 846.833 331.5 843 338.5Z" fill="#DBE9F9" stroke="black"/>
</svg>
