<svg width="486" height="346" viewBox="0 0 486 346" fill="none" xmlns="http://www.w3.org/2000/svg">
<path d="M428.448 94.241L459.948 119.741C460.396 114.438 460.045 111.486 457.948 106.741C455.911 101.081 453.294 98.4149 446.948 94.241C439.485 91.7661 435.427 91.8542 428.448 94.241Z" fill="black" stroke="black"/>
<path d="M190.449 185.241C175.473 175.658 174.594 168.692 184.949 153.741C169.68 149.193 157.248 139.489 129.449 111.741C104.88 88.7654 89.3292 78.896 58.4487 66.7414C32.2112 60.4469 19.3463 60.3945 0.94873 68.7414C-0.749392 88.9733 2.15159 100.582 13.4487 121.741C26.7815 145.958 37.4371 156.728 63.4487 169.741C41.7334 191.692 29.8814 204.263 17.4487 233.741C9.47433 251.56 7.96364 260.628 11.9487 274.741C15.1713 277.811 18.6552 278.406 25.9487 278.741C46.7289 279.728 58.3511 277.785 78.9487 270.241C104.599 256.553 117.954 246.594 140.449 224.241C163.254 200.714 174.471 191.49 190.449 185.241Z" fill="#FF3403" stroke="black"/>
<path d="M312.449 235.241C319.078 237.325 323.044 238.05 330.449 238.741C345.489 239.697 353.921 239.498 368.949 236.741C389.378 231.756 400.225 227.464 418.949 218.241C433.136 210.774 440.506 205.868 452.949 196.241C464.274 186.677 468.808 181.742 471.449 174.241C472.607 170.975 469.567 169.102 462.449 165.741C457.172 161.741 457.383 159.869 464.449 157.241C473.298 156.147 476.961 154.221 483.449 150.741C486.119 147.208 485.566 145.091 483.449 141.241C472.954 131.27 466.77 125.82 455.449 116.241C436.705 100.036 425.556 91.2343 402.949 76.7412C391.909 70.0646 384.839 66.4555 367.449 60.741C352.488 56.7339 343.671 55.8116 326.949 57.241C312.338 59.3197 304.378 61.9354 290.449 68.241C275.584 75.8725 268.034 80.9061 255.449 90.741C242.278 101.523 234.854 108.06 221.449 121.741C205.843 138.464 197.185 147.551 184.949 153.741C175.023 168.202 175.056 175.221 190.449 184.741C200.772 185.669 206.272 186.736 215.449 189.741C232.969 193.65 242.241 198.346 258.449 208.241" stroke="black"/>
<path d="M312.449 235.241C319.078 237.325 323.044 238.05 330.449 238.741C345.489 239.697 353.921 239.498 368.949 236.741C389.378 231.756 400.225 227.464 418.949 218.241C433.136 210.774 440.506 205.868 452.949 196.241C464.274 186.677 468.808 181.742 471.449 174.241C472.607 170.975 469.567 169.102 462.449 165.741C457.172 161.741 457.383 159.869 464.449 157.241C473.298 156.147 476.961 154.221 483.449 150.741C486.119 147.208 485.566 145.091 483.449 141.241C472.954 131.27 466.77 125.82 455.449 116.241C436.705 100.036 425.556 91.2343 402.949 76.7412C391.909 70.0646 384.839 66.4555 367.449 60.741C352.488 56.7339 343.671 55.8116 326.949 57.241C312.338 59.3197 304.378 61.9354 290.449 68.241C275.584 75.8725 268.034 80.9061 255.449 90.741C242.278 101.523 234.854 108.06 221.449 121.741C205.843 138.464 197.185 147.551 184.949 153.741C175.023 168.202 175.056 175.221 190.449 184.741C200.772 185.669 206.272 186.736 215.449 189.741C232.969 193.65 242.241 198.346 258.449 208.241" stroke="#FF9E3C"/>
<path d="M337.449 20.742C356.144 36.1033 365.149 45.8889 379.449 64.742L365.949 60.2412L348.949 56.7412L341.949 56.7412L324.949 57.2412L307.949 61.2412L284.449 71.2412L261.949 85.7412L238.949 104.241L204.449 139.241C192.637 123.537 191.142 115.164 194.449 100.741C197.608 89.6629 202.269 85.3098 212.449 78.7412C211.966 62.2338 214.099 57.0775 220.449 52.2412C228.795 45.5336 234.811 43.6991 246.449 41.7412C247.263 40.1538 247.278 39.1846 246.449 37.2412C242.432 33.9852 240.487 31.6595 237.449 26.7412C236.424 25.1579 236.149 24.0946 236.449 21.7412C240.032 8.48709 246.445 6.25179 257.804 2.29249L257.949 2.24201C273.616 -0.182985 282.244 0.0239232 297.449 2.24201C314.905 6.16849 323.732 10.0907 337.449 20.742Z" fill="#FF3403" stroke="black"/>
<path d="M369.949 236.741C390.271 231.226 401.043 227.261 418.949 218.241C428.119 225.309 432.399 229.803 438.449 238.741C448.254 257.453 451.795 268.378 453.949 288.741C454.298 303.446 454.12 311.342 451.949 323.741C443.692 315.477 438.809 310.971 429.449 303.241C418.992 298.361 413.34 295.294 403.949 288.741C389.791 279.53 384.644 273.03 377.949 260.241C372.586 252.15 370.819 247.034 369.949 236.741Z" fill="#FF3403" stroke="black"/>
<path d="M311.449 190.741C318.73 190.995 322.355 189.979 328.449 187.241C311.302 188.107 301.825 186.535 284.949 180.241C287.515 182.776 289.488 184.09 293.949 186.241C300.302 188.753 304.037 189.89 311.449 190.741Z" fill="#E07608" stroke="black"/>
<path d="M294.449 186.241C302.468 189.752 307.232 190.8 316.449 190.741C315.291 208.078 314.479 217.818 312.449 235.241C309.109 251.7 306.185 259.936 297.949 271.741C290.243 282.764 285.657 288.39 276.449 296.241C266.519 304.073 260.708 307.918 249.449 312.741C238.013 318.398 232.222 322.582 222.949 331.741L208.949 344.741C206.907 328.791 206.61 319.594 207.449 302.741C208.304 284.967 210.806 276.569 215.449 261.741C219.312 248.784 223.549 242.514 231.949 231.741C236.787 225.227 240.097 221.975 246.949 216.741L258.449 208.241C265.479 203.647 269.745 201.562 277.949 198.741C285.104 195.197 288.726 192.419 294.449 186.241Z" fill="#FF3403" stroke="black"/>
<path d="M312.949 235.241C335.208 240.318 347.682 240.266 369.949 236.241C384.358 233.074 392.138 230.171 405.949 224.741C416.099 219.922 421.547 216.926 430.949 211.241C453.034 197.25 460.218 190.72 468.449 180.241C470.972 176.046 471.828 173.868 470.949 170.741C467.711 168.457 465.589 167.265 461.449 165.241C457.205 161.585 457.627 159.899 463.449 157.741C471.684 156.271 475.911 154.641 482.949 150.741C486.297 146.797 485.828 144.365 481.949 139.741L431.949 96.7412C412.469 81.8944 400.896 75.1973 379.449 65.2412C368.165 60.0664 361.313 58.349 348.449 56.7412L324.449 57.2412L308.449 61.2412L284.449 70.7412L261.449 86.2412L238.449 104.741L204.449 139.741C197.545 145.905 193.372 149.06 184.949 153.741C176.028 167.485 173.973 174.753 190.449 184.741L199.949 185.741L209.449 187.741L220.949 191.241L226.949 192.741L234.949 195.741L242.449 199.241L248.949 202.741L258.449 208.241L262.949 205.241L270.949 201.241L278.949 198.741L286.449 193.741L294.449 186.241C302.751 189.962 307.597 190.907 316.449 191.241L312.949 235.241Z" fill="#FF9E3C" stroke="black"/>
<circle cx="22.5" cy="22.5" r="22.5" transform="matrix(-1 -8.74228e-08 -8.74228e-08 1 432.449 110.241)" fill="black"/>
<ellipse cx="6.5" cy="7.5" rx="6.5" ry="7.5" transform="matrix(-1 -8.74228e-08 -8.74228e-08 1 409.449 118.241)" fill="white"/>
<ellipse cx="24" cy="22" rx="24" ry="22" transform="matrix(-1 -8.74228e-08 -8.74228e-08 1 390.449 157.241)" fill="#FFD38A"/>
</svg>
