<svg width="2050" height="1008" viewBox="0 0 2050 1008" fill="none" xmlns="http://www.w3.org/2000/svg">
<g filter="url(#filter0_d_8_26)">
<path d="M960.5 948C942.9 954.4 945.5 945.333 949 940C956.578 927.928 960.733 917.004 968 889C977.108 869.132 979.777 859.378 981 844C1046.77 818.427 1081.14 810.23 1138 806.5C1087.25 880.856 1046.61 910.008 960.5 948Z" fill="#F1EA40" stroke="black"/>
<path d="M480 463C488.068 495.208 480 536 480 547C480 558 491.124 590.077 486.5 613.5C486.333 625.5 487.4 657.3 493 688.5C498.6 719.7 514.667 719.167 522 715C536 716.2 553.833 705.167 561 699.5C582.622 687.511 599.306 672.974 613 656.579C630.727 642.634 644.366 633.221 657.5 626.5C694.481 620.208 709.318 628.512 719.5 676L714.5 505C697.523 532.236 684.588 538.2 650 517.5C629.95 496.096 568.972 442.093 531.5 416C503.508 396.508 490.5 407 486.5 416C476.1 422.4 477.833 450 480 463Z" fill="#866BF9" stroke="black"/>
<path d="M639 433.5C637.4 471.1 662.5 511 666 523.5C669.5 536 672.375 609.992 659.5 628.5C646.904 643.519 642.95 650.94 638 663.5L637.66 664.508C631.574 682.514 628.059 692.917 618.5 710C606.508 731.882 600.522 744.853 592.5 770.5C585.409 784.545 582.878 791.84 580.5 804C577.453 830.654 579.132 842.212 589.5 855.5C596.772 869.234 603.018 876.648 624.5 888.5C631.409 888.15 636.046 889.714 644.776 896.5C645.627 897.73 646.843 898.751 648.5 899.5C661.003 900.484 669.032 900.893 673.5 903C680.524 906.809 675.424 909.825 717.5 908C738.923 904.139 750.283 902.261 763.5 902C772.019 901.235 787.075 898.9 817 893.245C827.832 892.154 838.64 890.927 837.5 889.5C838 888.167 842.1 884.9 854.5 882.5C866.9 880.1 887.334 868.833 896 863.5C906.287 862.943 912.5 862.201 922 862.363C923.419 862.387 922.5 862.5 926.5 862.5C930.5 862.5 934.397 865.076 943 864C957.346 862.224 965.223 860.89 979 858C1048.97 832.918 1083.03 823.151 1132 815.5C1175.13 813.417 1196.18 809.44 1230.5 797C1252.94 789.43 1261.71 784.129 1269.5 772.5C1294.3 769.7 1319.83 762.333 1329.5 759C1336.94 755.124 1343.29 752.764 1368 735.485C1372.19 732.001 1376.49 729.363 1381 727.5C1394.96 722.909 1403.33 720.923 1419.5 718.712C1422.48 718.413 1424.13 718.102 1427 717C1430.17 715.5 1439.4 712.8 1451 714C1462.6 715.2 1477.5 711.5 1483.5 709.5C1515.18 708.75 1530.92 708.317 1551.5 707.5C1555.83 707 1564.7 704.8 1565.5 700C1566.5 694 1564 695 1563 693.5C1562.2 692.3 1555 691.333 1551.5 691C1524.99 690.604 1517.52 690.384 1516.5 690C1511.3 687.2 1514 684.167 1516 683C1518.49 682.611 1519.77 682.543 1522 682.5C1537.46 682.56 1544.66 682.316 1555.5 681.5C1564.7 680.3 1566 677.667 1565.5 676.5C1564.83 672.251 1563.03 670.293 1557.5 667.5C1548.77 664.598 1543.74 663.639 1534.5 663C1513.98 660.437 1502.84 659.493 1483.5 658.5C1470.57 658.278 1468.55 657.885 1468.5 657C1466.81 655.667 1465.7 655.372 1463.5 655.5C1457.21 656.034 1448.87 654.022 1431 649C1422.7 645.913 1416.9 644.271 1404.5 641.5C1386.9 638.7 1374.5 629 1370.5 624.5C1358 613.5 1367 616.5 1362 613.5C1358 611.1 1355 605.5 1354 603C1342.97 578.745 1337.18 565.283 1327.5 541.5C1323.04 531.682 1321.93 528.201 1322 525C1318.05 520.422 1316.09 516.74 1313 508C1312.01 501.797 1311.58 499.992 1311 499.5C1309.29 494.099 1308.66 491.573 1308 488C1305.89 477.481 1305.02 474.438 1304 474C1303.5 474 1302.3 472.7 1301.5 467.5C1300.7 462.3 1299.17 457.667 1298.5 456C1293.28 442.274 1291.36 437.872 1290 436C1289 434.333 1286.9 430.6 1286.5 429C1286.1 427.4 1285.67 426.333 1285.5 426C1285 425.5 1283.9 423.9 1283.5 421.5C1283.1 419.1 1281 416.167 1280 415C1276.12 404.546 1273.46 399.817 1268 393C1262.85 380.89 1259.41 375.9 1252.5 369.5C1250.7 367.633 1250.04 366.798 1250 366C1250.13 363.021 1248.29 362.962 1247 362.5C1240.5 360.5 1247 356 1235 349C1225.4 343.4 1214.67 333.333 1210.5 329C1204 322.5 1190 307.8 1186 301C1182 294.2 1158.33 277.5 1147 270C1130.24 252.933 1123.12 248.157 1114.5 248.5C1080.2 223.262 1069.12 216.866 1062 217.5C1028.84 197.91 1015.39 193.263 1002 196.5C972.187 182.727 961.662 179.65 954 182.5C940.072 175.735 932.293 173.304 919 171.5C899.858 162.122 891.527 159.958 880.5 161C865.851 150.983 857.064 147.63 840.5 145.5C817.3 132.7 802.833 131.5 798.5 132.5C795 133 787 133.3 783 130.5C778 127 748 120.5 718.5 119.5C689 118.5 665 121 643.5 126.5C622 132 624.5 134.5 614 140C603.5 145.5 606.5 143.5 605 156.5C603.5 169.5 598.5 181.5 595.5 189C592.5 196.5 602.5 196 602.5 206.5C602.5 217 592 207.5 598.5 221.5C605 235.5 595.5 233 598.5 241C601.5 249 603.5 253 609 275.5C614.5 298 620.5 310.5 627 349C633.5 387.5 641 386.5 639 433.5Z" fill="#866BF9" stroke="black"/>
<path d="M1304.5 686.5C1300.83 715.336 1291.5 742 1288.5 748C1285.5 754 1278.8 743.5 1274 739.5C1269.2 735.5 1270.33 725.5 1271.5 721C1273.9 714.136 1274.47 709.667 1274 700.5C1273.5 659.054 1272.04 649.314 1269 637V558.5C1265.46 515.465 1266.12 509.009 1267 495.5C1266.42 479.153 1266.99 470.976 1269 457.5C1275.32 430.822 1265.9 410.783 1249 375C1274.36 409.51 1287.83 428.697 1286.5 457.5C1283.66 471.31 1284.42 475.867 1286.5 483C1297.6 517.546 1300.72 535.659 1296.5 564L1306 632C1308.52 653.311 1308.21 665.244 1304.5 686.5Z" fill="#D09E3F" stroke="black"/>
<path d="M1241.1 599.388C1243.18 578.442 1257.5 562 1272 559.5C1286.5 557 1297.13 560.949 1307.5 573.5C1321.69 587.661 1323.93 595.533 1321.5 609.5C1310.75 633.342 1295.5 642.5 1279 640C1262.5 637.5 1244.79 621.605 1241.1 599.388Z" fill="#AB95F9"/>
<path d="M1241 600.5C1241.03 600.126 1241.07 599.755 1241.1 599.388M1241.1 599.388C1243.18 578.442 1257.5 562 1272 559.5C1286.5 557 1297.13 560.949 1307.5 573.5C1321.69 587.661 1323.93 595.533 1321.5 609.5C1310.75 633.342 1295.5 642.5 1279 640C1262.5 637.5 1244.79 621.605 1241.1 599.388Z" stroke="black"/>
<path d="M1293 601C1288.61 588.526 1282.5 583 1275 583.5C1267.5 584 1268.4 582 1262 590C1255.6 598 1260.33 607.333 1263.5 611C1265.67 613.5 1272.7 617.8 1283.5 615C1294.3 612.2 1294.33 604.5 1293 601Z" fill="#090178" stroke="black"/>
<path d="M1279.5 581C1273.61 580.784 1271.23 581.456 1268.5 584C1276.06 583.123 1279.02 583.645 1282.5 586C1286.88 589.37 1289.08 592.163 1292.5 599C1294.53 607.979 1291.31 610.222 1286 614.5C1289.49 615.224 1291.7 614.466 1296 611.5C1297.73 608.969 1298.08 607.228 1297.5 603.5C1295.78 597.401 1294.27 594.275 1291 589C1286.81 583.164 1284.24 581.899 1279.5 581Z" fill="#F7EEAD" stroke="black"/>
<path d="M1300.5 618C1301.3 615.2 1298.17 612.5 1296.5 611.5C1290.17 614.956 1288.02 615.33 1286 614L1283.5 615C1282.27 621.198 1281.22 623.638 1279 627C1283.33 627.452 1285.74 627.176 1290 626C1293.17 624.5 1299.7 620.8 1300.5 618Z" fill="#A84259" stroke="black"/>
<path d="M1270 621C1269.57 618.451 1267.41 615.858 1264 611.5C1272.94 615.663 1277.12 616.12 1283.5 614.5C1283.17 617 1281.7 623 1278.5 627C1275.3 631 1271.5 624.667 1270 621Z" fill="#F9C53B" stroke="black"/>
<path d="M1131.5 278C1126 273.5 1109.67 254.244 1094 242.5C1112.49 250.345 1123.44 257.185 1144.5 276C1172.29 292.757 1183.79 301.766 1195.5 317C1202.51 330.701 1205 338.373 1202 352C1191.2 373.6 1202 375 1206 382.5C1210 390 1207.64 419.373 1206 443C1206.16 484.009 1205.26 506.999 1201 548C1196.72 580.815 1193.85 649.255 1190 666.5C1185.78 685.421 1183 691.333 1184 692.5C1190.4 698.9 1183.67 703.167 1179.5 704.5C1176.65 738.526 1174.88 748.288 1171.5 752C1158.7 769.2 1144.83 794.5 1139.5 805C1114.5 811.5 1103.31 811.513 1080.5 825C1094.04 805.743 1101.51 793.976 1114.5 770C1120.83 750.692 1123.28 739.592 1124.5 719C1124.71 699.08 1124.91 688.393 1126.5 676C1127.5 673.167 1129.6 665.3 1130 656.5C1130.4 647.7 1133.17 646.5 1134.5 647C1141.3 649.4 1143.33 647 1143.5 645.5C1147.01 639.519 1143.5 623 1142 619C1140.5 615 1147.31 587.227 1149.5 584C1158.08 577.455 1151.5 564.5 1149.5 556C1147.5 547.5 1157.32 506.05 1158 490.5C1159.74 461.129 1160.24 445.436 1158 422.5C1154.86 376.845 1154.57 360.853 1158 358C1164.35 341.97 1161.5 337.5 1157 315C1152.5 292.5 1137 282.5 1131.5 278Z" fill="#CFA918" stroke="black"/>
<path d="M1290 592.5C1278.14 580.241 1271.82 580.088 1261 590C1256.08 581.987 1256.25 576.576 1259.5 566C1262 563.973 1263.41 563.046 1266 562C1264.54 566.752 1264.56 568.688 1266.5 570.5C1278.29 571.774 1283.21 571.921 1285.5 570C1290.61 563.092 1289.15 562.918 1289 560.5C1292.16 561.283 1293.88 561.753 1295 564C1290.57 571.849 1290.86 575.282 1294 580.5C1292.44 582.047 1291.56 584.51 1290 592.5Z" fill="#893BBE" stroke="black"/>
<path d="M1289 560.5C1277.63 559.82 1272.84 560.281 1266 562C1264.44 566.539 1264.43 568.487 1266.5 570.5C1277.26 571.771 1281.55 571.853 1285 570.5C1288.83 565.884 1290 563.602 1289 560.5Z" fill="#EEB685" stroke="black"/>
<path d="M978.5 857.5C961.04 860.554 953.021 861.702 939.5 863.5C947.835 845.536 951.638 834.357 951 805C951 805 945 768 948 759C951 750 954 725.5 953 717C952 708.5 963.823 659.435 964.5 645C972.132 614.689 975.779 595.134 980.5 553C984.524 492.621 987.947 464.913 996 426C1003.75 386.454 1005.5 368.996 1005.5 343.5C1007.74 320.945 1005.99 305.804 993.5 271C979.172 243.872 966.887 232.529 942 215C921.899 189.356 966 205.5 984 218C1002 230.5 1026.13 259.692 1036.5 290C1051.5 321.421 1050.57 344.763 1043 390C1035.67 439.669 1039.5 489.5 1037 501.5C1034.5 513.5 1025.26 532.128 1024.5 551C1022.99 578.664 1020.78 592.951 1013 615C1006.36 639.312 1013 671 1013 676C1013 681 1003.07 709.03 1002 732.5C1002.96 742.502 1002.66 746.025 1002 752C997.697 774.662 994.898 786.751 985 800.5C980.308 822.859 978.835 835.34 978.5 857.5Z" fill="#DDB520" stroke="black"/>
<path d="M807.5 706C809.523 788.006 776.5 874 768 880C759.5 886 727.2 887.7 708 886.5C688.8 885.3 655 870.333 640.5 863C606.313 840.447 605.977 824.692 615 795C630.438 763.899 639.5 736.5 640.5 730.5C641.5 724.5 666.678 670.91 670.5 653.5C672.5 627.9 681.5 626.667 685 627.5C697.672 627.981 704.732 637.132 712.5 660.5C713.3 664.9 715.833 671.333 717 674C724.2 682.4 721.333 656.167 719 642C723 614 729.333 626.333 732 636C734.707 647.185 735.097 653.802 734.5 666C734.342 696.046 732.569 710.728 726 732.5C714.476 762.734 710.439 776.087 708 793C709.682 814.073 712.264 814.011 719 798.5C727.654 774.685 730.271 765.69 734.5 750.5C748.667 699.962 746.46 664.734 742.556 602.392L742.5 601.5C740.105 571.284 741.717 551.151 749 510.5C752.667 489.833 759.9 443.2 759.5 422C759.1 400.8 749.667 389.167 745 386C745 386 704 357.5 701 362.5C698 367.5 711.362 420.754 711 457.5C713.791 483.101 714.829 496.047 714 512C712.267 531.491 710.745 542.125 706 560C701.178 576.656 701.185 581.959 704.5 586.5C707.167 589 711.6 596.8 708 608C704.4 619.2 695.5 616 691.5 613C684.568 605.266 685.444 598.995 689 587C692.027 570.311 693.019 563.342 691.5 562C689.5 557.833 686.3 547.4 689.5 539C692.7 530.6 683.5 526.833 678.5 526C677.978 511.721 677.256 506.185 675.5 499V498.5C670.478 466.039 671.368 464.741 671 453.5C667.595 402.053 666.298 394.839 664 382.5C659.188 342.163 656.827 324.248 655 325.5C646.559 314.273 647.967 314.386 648 312C648.468 295.851 647.849 292.789 646.5 289C638.415 270.846 638.017 266.423 638 259.5C632.73 238.034 632.622 232.908 635 230C643.453 219.897 641.936 216.01 639.5 209C634.647 183.555 638 165.5 651 155C664 144.5 690.625 145.783 727 144.5C776.104 145.177 799.388 148.27 832 159.5C854.8 158.7 864.5 230.167 866.5 266C862.434 358.375 852.408 395.038 832 455.5C814.18 544.729 808.106 598.832 807.5 706Z" fill="#B69F04" stroke="black"/>
<path d="M1093 702C1100.37 721.807 1107.06 727.207 1122.5 729C1129.72 732.562 1133.78 732.224 1141 729C1154.5 707.667 1174.3 663.2 1145.5 656C1116.7 648.8 1109.17 635 1109 629C1093.83 607.5 1056 557.2 1026 528C996 498.8 968.5 499.5 958.5 503.5C938.778 530.281 935.837 547.658 949 584C945.598 611.278 950.416 622.918 980.5 632C988.03 654.124 1002.27 662.41 1041.5 671.5C1050.14 691.85 1058.76 700.485 1093 702Z" fill="#765BEA" stroke="black"/>
<path d="M979.5 857C1039.11 835.531 1072.36 825.465 1131 815.5H1132C1114.01 812.099 1103.94 809.825 1086 805C1072.93 800.054 1040.5 800 1034 800.5C1027.5 801 1000.16 798.864 978 801.5C959.864 802.839 950.378 804.374 935 808.5C915.55 814.243 904.96 818.478 887 829C874.754 837.771 867.524 841.664 853 844C843.682 844.552 838.536 844.539 829.5 844C824 843.5 824.5 845.12 825 846.5C825.5 847.88 826.333 848.333 827.5 848.5L843 849.5C823.13 850.198 794.5 857.651 807.5 857C820.5 856.349 872 858.301 878.5 857.651C885 857 923 862 928.5 862.5C934 863 952.328 862.805 979.5 857Z" fill="#E5EB57" stroke="black"/>
<path d="M837.5 296.5C827.148 271.672 819.367 266.304 803 267.5C835.496 291.152 838.93 307.93 817 344.5C835.467 320.373 838.041 310.849 837.5 296.5Z" fill="#7D70FC"/>
<path d="M738.5 303C731.5 293.5 750.08 274.076 760 277C750.316 277.211 750.905 289.996 753 315C758.523 345.477 764.22 356.019 779.5 362C786.7 374 774.833 370.333 768 367C754.404 349.673 751.81 343.45 751 335C747.504 321.005 745.5 312.5 738.5 303Z" fill="#7D70FC"/>
<path d="M837.5 296.5C827.148 271.672 819.367 266.304 803 267.5C835.496 291.152 838.93 307.93 817 344.5C835.467 320.373 838.041 310.849 837.5 296.5Z" stroke="black"/>
<path d="M738.5 303C731.5 293.5 750.08 274.076 760 277C750.316 277.211 750.905 289.996 753 315C758.523 345.477 764.22 356.019 779.5 362C786.7 374 774.833 370.333 768 367C754.404 349.673 751.81 343.45 751 335C747.504 321.005 745.5 312.5 738.5 303Z" stroke="black"/>
<path d="M816 277C795.6 255 769.833 267.833 759.5 277C754.667 275.333 746.9 282.6 754.5 325C762.1 367.4 787 365 798.5 358.5C815.712 347.551 821.78 340.235 826 325C831.167 318.167 836.4 299 816 277Z" fill="#110E3D" stroke="#09032F"/>
</g>
<defs>
<filter id="filter0_d_8_26" x="0" y="0" width="2050" height="1008" filterUnits="userSpaceOnUse" color-interpolation-filters="sRGB">
<feFlood flood-opacity="0" result="BackgroundImageFix"/>
<feColorMatrix in="SourceAlpha" type="matrix" values="0 0 0 0 0 0 0 0 0 0 0 0 0 0 0 0 0 0 127 0" result="hardAlpha"/>
<feOffset dy="4"/>
<feGaussianBlur stdDeviation="2"/>
<feComposite in2="hardAlpha" operator="out"/>
<feColorMatrix type="matrix" values="0 0 0 0 0 0 0 0 0 0 0 0 0 0 0 0 0 0 0.25 0"/>
<feBlend mode="normal" in2="BackgroundImageFix" result="effect1_dropShadow_8_26"/>
<feBlend mode="normal" in="SourceGraphic" in2="effect1_dropShadow_8_26" result="shape"/>
</filter>
</defs>
</svg>
