<svg width="597" height="426" viewBox="0 0 597 426" fill="none" xmlns="http://www.w3.org/2000/svg">
<path d="M173.614 167.071L165.582 153.288L153.446 127.857L147.016 111.127L139.569 94.8622L133.881 85.6619L123.419 69.794L114.335 57.4755L100.392 40.9879L87.8282 28.0498L76.6434 18.6609L64.9075 10.7541L52.6205 4.32921L44.7109 1.55651L37.7321 0.816905L31.5959 0.606486L24.6198 3.86932L19.4857 7.69562L16.3332 12.0902L14.7141 15.5367L14.2085 30.2808L15.3907 39.574L18.5117 50.6875L21.2015 59.785L25.3561 69.9334L29.4936 80.5814L34.0966 92.246L36.8207 100.344L39.0279 108.925L39.8388 114.456L40.1329 120.469L39.8073 129.964L35.3641 142.819L28.4567 154.589L15.8126 173.167C15.8126 173.167 10.0531 182.335 8.26835 188.918C5.81516 197.966 7.94555 212.921 7.94555 212.921L8.75647 218.452L13.7563 233.132L23.1164 251.964L30.5291 269.228L32.3394 274.793L33.0304 283.822L33.7728 291.352C34.8047 300.571 34.8209 305.718 32.9674 314.838C30.6556 325.342 28.858 331.096 24.5636 341.065C22.8249 348.116 21.613 352.22 18.9154 359.883L16.5396 370.808C15.1366 376.712 15.2248 379.995 16.5252 385.816C19.4336 396.938 22.6386 401.249 30.8481 405.819C37.8887 407.252 41.7361 407.372 48.355 405.919C61.317 403.124 68.5875 398.551 81.5385 386.545L133.014 329.776C145.726 311.923 154.928 299.512 165.624 286.141C171.209 279.158 177.202 271.914 184.316 263.495C138.138 222.356 140.113 201.605 173.614 167.071Z" fill="#FF3080"/>
<g filter="url(#filter0_d_206_3)">
<path d="M166.089 284.382L183.816 263.477C139.764 223.657 138.967 202.743 174.097 167.588L165.582 153.288C166.244 157.414 166.228 159.713 165.222 163.782C162.018 170.411 158.588 170.272 151.11 166.8L123.364 144.336C109.114 133.181 103 129.149 98.8411 129.987C92.5922 129.538 91.4426 131.095 93.0873 137.294L103.17 149.647L115.785 161.086L130.365 173.593C137.313 179.621 140.636 183.516 144.739 192.096C145.132 196.204 143.221 197.208 137.055 197.336L124.58 196.408L92.6158 194.812C85.2461 194.845 81.5683 196.074 75.403 200.725C72.1143 203.932 72.4529 205.914 76.5937 209.771C83.1529 214.397 87.4606 215.557 95.8938 215.936L121.413 215.811C127.781 215.929 131.281 216.316 137.352 217.859C142.01 220.367 143.112 222.058 142.592 225.543C140.018 233.725 137.352 238.13 129.896 245.619L121.144 252.824L108.757 263.906C105.435 267.051 103.6 268.841 100.953 272.643C98.5249 275.895 97.9353 277.867 97.6466 281.535C97.206 285.142 98.2413 286.285 102.472 286.704C108.422 285.044 111.425 283.433 116.239 279.171L123.991 271.932L138.446 258.92L147.163 252.715C156.113 249.982 160.408 251.003 167.049 256.399C172.165 265.95 171.566 272.176 166.089 284.382Z" fill="#BE0055"/>
<path d="M166.089 284.382L183.816 263.477C139.764 223.657 138.967 202.743 174.097 167.588L165.582 153.288C166.244 157.414 166.228 159.713 165.222 163.782C162.018 170.411 158.588 170.272 151.11 166.8L123.364 144.336C109.114 133.181 103 129.149 98.8411 129.987C92.5922 129.538 91.4426 131.095 93.0873 137.294L103.17 149.647L115.785 161.086L130.365 173.593C137.313 179.621 140.636 183.516 144.739 192.096C145.132 196.204 143.221 197.208 137.055 197.336L124.58 196.408L92.6158 194.812C85.2461 194.845 81.5683 196.074 75.403 200.725C72.1143 203.932 72.4529 205.914 76.5937 209.771C83.1529 214.397 87.4606 215.557 95.8938 215.936L121.413 215.811C127.781 215.929 131.281 216.316 137.352 217.859C142.01 220.367 143.112 222.058 142.592 225.543C140.018 233.725 137.352 238.13 129.896 245.619L121.144 252.824L108.757 263.906C105.435 267.051 103.6 268.841 100.953 272.643C98.5249 275.895 97.9353 277.867 97.6466 281.535C97.206 285.142 98.2413 286.285 102.472 286.704C108.422 285.044 111.425 283.433 116.239 279.171L123.991 271.932L138.446 258.92L147.163 252.715C156.113 249.982 160.408 251.003 167.049 256.399C172.165 265.95 171.566 272.176 166.089 284.382Z" stroke="black"/>
</g>
<path d="M586.623 232.264C591.388 223.934 590.652 218.618 587.428 208.778C579.259 189.415 564.896 174.852 513.769 139.213C492.649 126.922 479.548 120.988 452.628 113.102C436.491 106.997 424.411 104.07 392.523 100.535C363.188 98.478 346.733 98.711 317.362 103.961C289.332 109.648 274.108 114.327 248.062 126.099C219.681 136.496 203.723 145.467 175.096 167.623C138.163 201.982 141.243 223.172 184.799 264.012C233.86 297.598 264.09 311.216 324.348 323.329C355.46 329.608 372.838 330.744 403.715 328.552C424.138 326.507 434.97 324.598 453.529 320.255C476.511 316.387 489.259 311.664 511.783 299.239C527.304 292.469 535.54 286.986 549.636 275.022C568.916 259.238 576.923 249.872 586.623 232.264Z" fill="#FF87B7"/>
<path d="M351.713 65.1151C382.308 76.3833 395.835 85.1083 415.941 103.339C397.464 100.233 386.788 99.2593 367.055 99.1611C352.769 98.9121 344.679 99.2646 329.94 101.891C313.176 104.071 303.57 106.03 286.106 110.894C283.423 108.883 282.525 107.276 282.365 103.261C282.46 97.1373 285.081 94.0327 289.875 88.5098C289.665 85.47 285.646 82.14 274.347 74.4693C270.505 71.1145 269.486 68.8236 270.21 63.8213C272.637 56.4347 278.403 54.5605 295.538 54.6838C321.087 54.4554 333.227 56.93 351.713 65.1151Z" fill="#FF3080"/>
<path d="M422.762 269.17C407.682 220.782 411.626 200.78 427.654 170.28C427.636 164.713 426.816 162.659 421.88 163.578C418.348 164.009 416.68 164.961 414.696 168.835C408.604 176.944 405.767 182.084 402.363 192.926C397.391 204.247 395.411 211.768 397.477 233.283C399.291 251.326 403.105 259.903 414.13 272.877C421.91 275.405 423.13 273.991 422.762 269.17Z" fill="#FF5F92"/>
<path d="M364.979 232.668C379.122 233.946 385.868 231.725 396.303 223.737C396.39 218.485 396.515 215.245 396.8 209.245C387.239 201.493 380.824 198.591 367.229 196.224C361.467 196.334 360.275 197.841 361.492 203.031C372.982 207.492 378.991 210.569 389.03 216.983C380.55 221.564 375.52 223.598 365.253 224.673C357.569 228.138 358.517 229.843 364.979 232.668Z" fill="#C10050"/>
<path d="M396.8 209.245C396.101 218.413 396.175 223.566 397.494 232.783C376.06 247.69 362.781 255.202 338.948 262.293C321.123 265.119 312.233 264.789 301.676 255.012C295.691 247.915 295.344 242.219 298.535 229.889C303.384 221.305 306.542 216.84 312.746 209.364C313.879 207.616 314.047 206.369 312.952 203.368C305.346 192.689 303.029 186.798 304.366 176.558C307.246 163.565 311.449 160.813 320.491 158.6C332.7 157.703 339.849 158.664 353.334 163.729C368.84 169.493 375.826 173.94 386.181 183.366L400.209 197.355L396.8 209.245Z" fill="#FF3080"/>
<path d="M396.871 221.755L397.42 205.764C386.383 196.487 379.676 193.203 366.367 192.192C361.67 192.895 360.715 194.313 362.629 199.068C374.762 203.601 380.923 206.512 389.667 213.003C380.544 217.08 374.601 218.808 362.874 221.089C360.036 223.491 359.419 224.964 362.135 228.068C376.135 228.67 383.773 227.431 396.871 221.755Z" fill="#BE0055"/>
<path d="M483.181 214.208C482.688 228.559 494.147 240.6 508.774 241.101C523.401 241.603 535.657 230.376 536.149 216.025C536.641 201.674 525.183 189.633 510.556 189.132C495.929 188.63 483.673 199.857 483.181 214.208Z" fill="white"/>
<ellipse cx="15" cy="17" rx="15" ry="17" transform="matrix(-0.999413 -0.0342713 -0.0342713 0.999413 524.739 198.624)" fill="black"/>
<path d="M572.535 234.592C579.327 235.769 582.355 234.733 586.681 230.574C585.018 235.684 583.681 238.035 579.842 240.346C574.784 240.337 571.948 240.1 566.884 238.901C558.763 235.616 555.016 233.164 550.271 227.324C549.832 223.527 550.838 223.073 553.889 223.946C558.903 229.594 562.858 232.007 572.535 234.592Z" fill="black"/>
<defs>
<filter id="filter0_d_206_3" x="69.1828" y="129.88" width="118.633" height="164.823" filterUnits="userSpaceOnUse" color-interpolation-filters="sRGB">
<feFlood flood-opacity="0" result="BackgroundImageFix"/>
<feColorMatrix in="SourceAlpha" type="matrix" values="0 0 0 0 0 0 0 0 0 0 0 0 0 0 0 0 0 0 127 0" result="hardAlpha"/>
<feOffset dy="4"/>
<feGaussianBlur stdDeviation="2"/>
<feComposite in2="hardAlpha" operator="out"/>
<feColorMatrix type="matrix" values="0 0 0 0 0 0 0 0 0 0 0 0 0 0 0 0 0 0 0.25 0"/>
<feBlend mode="normal" in2="BackgroundImageFix" result="effect1_dropShadow_206_3"/>
<feBlend mode="normal" in="SourceGraphic" in2="effect1_dropShadow_206_3" result="shape"/>
</filter>
</defs>
</svg>
